<mxfile host="app.diagrams.net" modified="2023-04-15T15:59:35.143Z" agent="Mozilla/5.0 (Macintosh; Intel Mac OS X 10.15; rv:109.0) Gecko/20100101 Firefox/110.0" etag="knqTUKhVTZfRupvI110O" version="21.1.8" type="github">
  <diagram name="Page-1" id="uP2ISM71yryUAKii5rDf">
    <mxGraphModel dx="954" dy="558" grid="1" gridSize="10" guides="1" tooltips="1" connect="1" arrows="1" fold="1" page="1" pageScale="1" pageWidth="827" pageHeight="1169" math="0" shadow="0">
      <root>
        <mxCell id="0" />
        <mxCell id="1" parent="0" />
      </root>
    </mxGraphModel>
  </diagram>
</mxfile>
